<?xml version="1.0" encoding="UTF-8"?>
<svg version="1.1" xmlns="http://www.w3.org/2000/svg" width="322" height="322">
<path d="M0 0 C106.26 0 212.52 0 322 0 C322 106.26 322 212.52 322 322 C215.74 322 109.48 322 0 322 C0 215.74 0 109.48 0 0 Z " fill="#010101" transform="translate(0,0)"/>
<path d="M0 0 C8.58 0 17.16 0 26 0 C26 0.66 26 1.32 26 2 C27.32 2 28.64 2 30 2 C30 2.66 30 3.32 30 4 C31.32 4 32.64 4 34 4 C34 4.66 34 5.32 34 6 C34.66 6 35.32 6 36 6 C36 6.66 36 7.32 36 8 C36.66 8 37.32 8 38 8 C38 9.32 38 10.64 38 12 C38.66 12 39.32 12 40 12 C40 12.66 40 13.32 40 14 C40.66 14 41.32 14 42 14 C42 19.94 42 25.88 42 32 C41.34 32 40.68 32 40 32 C40 33.32 40 34.64 40 36 C39.34 36 38.68 36 38 36 C38 36.66 38 37.32 38 38 C37.34 38 36.68 38 36 38 C36 38.66 36 39.32 36 40 C35.34 40 34.68 40 34 40 C34 40.66 34 41.32 34 42 C33.34 42 32.68 42 32 42 C32 42.66 32 43.32 32 44 C30.68 44 29.36 44 28 44 C28 44.66 28 45.32 28 46 C26.68 46 25.36 46 24 46 C24 46.66 24 47.32 24 48 C24.66 48 25.32 48 26 48 C26 48.66 26 49.32 26 50 C26.66 50 27.32 50 28 50 C28 50.66 28 51.32 28 52 C28.66 52 29.32 52 30 52 C30 52.66 30 53.32 30 54 C30.66 54 31.32 54 32 54 C32 54.66 32 55.32 32 56 C32.66 56 33.32 56 34 56 C34 56.66 34 57.32 34 58 C34.66 58 35.32 58 36 58 C36 58.66 36 59.32 36 60 C36.66 60 37.32 60 38 60 C38 60.66 38 61.32 38 62 C38.66 62 39.32 62 40 62 C40 63.32 40 64.64 40 66 C40.66 66 41.32 66 42 66 C42 68.64 42 71.28 42 74 C41.34 74 40.68 74 40 74 C40 74.66 40 75.32 40 76 C39.34 76 38.68 76 38 76 C38 76.66 38 77.32 38 78 C36.02 78 34.04 78 32 78 C32 77.34 32 76.68 32 76 C31.34 76 30.68 76 30 76 C30 75.34 30 74.68 30 74 C29.34 74 28.68 74 28 74 C28 73.34 28 72.68 28 72 C27.34 72 26.68 72 26 72 C26 71.34 26 70.68 26 70 C24.68 70 23.36 70 22 70 C22 68.68 22 67.36 22 66 C21.34 66 20.68 66 20 66 C20 65.34 20 64.68 20 64 C18.68 64 17.36 64 16 64 C16 62.68 16 61.36 16 60 C14.68 60 13.36 60 12 60 C12 64.62 12 69.24 12 74 C11.34 74 10.68 74 10 74 C10 74.66 10 75.32 10 76 C9.34 76 8.68 76 8 76 C8 76.66 8 77.32 8 78 C5.36 78 2.72 78 0 78 C0 77.34 0 76.68 0 76 C-0.66 76 -1.32 76 -2 76 C-2 75.34 -2 74.68 -2 74 C-2.66 74 -3.32 74 -4 74 C-4 50.9 -4 27.8 -4 4 C-3.34 4 -2.68 4 -2 4 C-2 3.34 -2 2.68 -2 2 C-1.34 2 -0.68 2 0 2 C0 1.34 0 0.68 0 0 Z " fill="#F5F5F5" transform="translate(177,127)"/>
<path d="M0 0 C9.24 0 18.48 0 28 0 C28 0.66 28 1.32 28 2 C29.32 2 30.64 2 32 2 C32 2.66 32 3.32 32 4 C33.32 4 34.64 4 36 4 C36 4.66 36 5.32 36 6 C36.66 6 37.32 6 38 6 C38 6.66 38 7.32 38 8 C38.66 8 39.32 8 40 8 C40 8.66 40 9.32 40 10 C40.66 10 41.32 10 42 10 C42 10.66 42 11.32 42 12 C42.66 12 43.32 12 44 12 C44 13.32 44 14.64 44 16 C44.66 16 45.32 16 46 16 C46 19.96 46 23.92 46 28 C45.34 28 44.68 28 44 28 C44 28.66 44 29.32 44 30 C43.34 30 42.68 30 42 30 C42 30.66 42 31.32 42 32 C39.36 32 36.72 32 34 32 C34 31.34 34 30.68 34 30 C33.34 30 32.68 30 32 30 C32 29.34 32 28.68 32 28 C31.34 28 30.68 28 30 28 C30 25.36 30 22.72 30 20 C29.34 20 28.68 20 28 20 C28 19.34 28 18.68 28 18 C27.34 18 26.68 18 26 18 C26 17.34 26 16.68 26 16 C18.74 16 11.48 16 4 16 C4 16.66 4 17.32 4 18 C3.34 18 2.68 18 2 18 C2 18.66 2 19.32 2 20 C1.34 20 0.68 20 0 20 C0 32.54 0 45.08 0 58 C0.66 58 1.32 58 2 58 C2 58.66 2 59.32 2 60 C2.66 60 3.32 60 4 60 C4 60.66 4 61.32 4 62 C11.26 62 18.52 62 26 62 C26 61.34 26 60.68 26 60 C26.66 60 27.32 60 28 60 C28 59.34 28 58.68 28 58 C28.66 58 29.32 58 30 58 C30 55.36 30 52.72 30 50 C30.66 50 31.32 50 32 50 C32 49.34 32 48.68 32 48 C32.66 48 33.32 48 34 48 C34 47.34 34 46.68 34 46 C36.64 46 39.28 46 42 46 C42 46.66 42 47.32 42 48 C42.66 48 43.32 48 44 48 C44 48.66 44 49.32 44 50 C44.66 50 45.32 50 46 50 C46 53.3 46 56.6 46 60 C45.34 60 44.68 60 44 60 C44 61.98 44 63.96 44 66 C43.34 66 42.68 66 42 66 C42 66.66 42 67.32 42 68 C41.34 68 40.68 68 40 68 C40 68.66 40 69.32 40 70 C39.34 70 38.68 70 38 70 C38 70.66 38 71.32 38 72 C37.34 72 36.68 72 36 72 C36 72.66 36 73.32 36 74 C34.68 74 33.36 74 32 74 C32 74.66 32 75.32 32 76 C30.68 76 29.36 76 28 76 C28 76.66 28 77.32 28 78 C18.76 78 9.52 78 0 78 C0 77.34 0 76.68 0 76 C-1.32 76 -2.64 76 -4 76 C-4 75.34 -4 74.68 -4 74 C-4.66 74 -5.32 74 -6 74 C-6 73.34 -6 72.68 -6 72 C-6.66 72 -7.32 72 -8 72 C-8 71.34 -8 70.68 -8 70 C-8.66 70 -9.32 70 -10 70 C-10 69.34 -10 68.68 -10 68 C-10.66 68 -11.32 68 -12 68 C-12 67.34 -12 66.68 -12 66 C-12.66 66 -13.32 66 -14 66 C-14 64.68 -14 63.36 -14 62 C-14.66 62 -15.32 62 -16 62 C-16 46.82 -16 31.64 -16 16 C-15.34 16 -14.68 16 -14 16 C-14 14.68 -14 13.36 -14 12 C-13.34 12 -12.68 12 -12 12 C-12 11.34 -12 10.68 -12 10 C-11.34 10 -10.68 10 -10 10 C-10 9.34 -10 8.68 -10 8 C-9.34 8 -8.68 8 -8 8 C-8 7.34 -8 6.68 -8 6 C-7.34 6 -6.68 6 -6 6 C-6 5.34 -6 4.68 -6 4 C-5.34 4 -4.68 4 -4 4 C-4 3.34 -4 2.68 -4 2 C-2.68 2 -1.36 2 0 2 C0 1.34 0 0.68 0 0 Z " fill="#F3F3F3" transform="translate(51,127)"/>
<path d="M0 0 C17.16 0 34.32 0 52 0 C52 0.66 52 1.32 52 2 C52.66 2 53.32 2 54 2 C54 2.66 54 3.32 54 4 C54.66 4 55.32 4 56 4 C56 7.3 56 10.6 56 14 C55.34 14 54.68 14 54 14 C54 14.66 54 15.32 54 16 C47.4 16 40.8 16 34 16 C34 35.14 34 54.28 34 74 C33.34 74 32.68 74 32 74 C32 74.66 32 75.32 32 76 C31.34 76 30.68 76 30 76 C30 76.66 30 77.32 30 78 C27.36 78 24.72 78 22 78 C22 77.34 22 76.68 22 76 C21.34 76 20.68 76 20 76 C20 75.34 20 74.68 20 74 C19.34 74 18.68 74 18 74 C18 54.86 18 35.72 18 16 C11.4 16 4.8 16 -2 16 C-2 15.34 -2 14.68 -2 14 C-2.66 14 -3.32 14 -4 14 C-4 10.7 -4 7.4 -4 4 C-3.34 4 -2.68 4 -2 4 C-2 3.34 -2 2.68 -2 2 C-1.34 2 -0.68 2 0 2 C0 1.34 0 0.68 0 0 Z " fill="#F4F4F4" transform="translate(109,127)"/>
<path d="M0 0 C1.98 0 3.96 0 6 0 C6 0.66 6 1.32 6 2 C7.32 2 8.64 2 10 2 C10 3.32 10 4.64 10 6 C10.66 6 11.32 6 12 6 C12 24.48 12 42.96 12 62 C20.58 62 29.16 62 38 62 C38 62.66 38 63.32 38 64 C38.66 64 39.32 64 40 64 C40 64.66 40 65.32 40 66 C40.66 66 41.32 66 42 66 C42 68.64 42 71.28 42 74 C41.34 74 40.68 74 40 74 C40 74.66 40 75.32 40 76 C39.34 76 38.68 76 38 76 C38 76.66 38 77.32 38 78 C25.46 78 12.92 78 0 78 C0 77.34 0 76.68 0 76 C-0.66 76 -1.32 76 -2 76 C-2 75.34 -2 74.68 -2 74 C-2.66 74 -3.32 74 -4 74 C-4 50.9 -4 27.8 -4 4 C-3.34 4 -2.68 4 -2 4 C-2 3.34 -2 2.68 -2 2 C-1.34 2 -0.68 2 0 2 C0 1.34 0 0.68 0 0 Z " fill="#F3F3F3" transform="translate(239,127)"/>
<path d="M0 0 C3.3 0 6.6 0 10 0 C10 0.66 10 1.32 10 2 C11.32 2 12.64 2 14 2 C14 5.3 14 8.6 14 12 C13.34 12 12.68 12 12 12 C12 12.66 12 13.32 12 14 C11.34 14 10.68 14 10 14 C10 14.66 10 15.32 10 16 C6.7 16 3.4 16 0 16 C0 10.72 0 5.44 0 0 Z " fill="#0D0D0D" transform="translate(189,143)"/>
<path d="M0 0 C1.32 0 2.64 0 4 0 C4 0.66 4 1.32 4 2 C3.34 2 2.68 2 2 2 C2 6.62 2 11.24 2 16 C1.34 16 0.68 16 0 16 C0 10.72 0 5.44 0 0 Z " fill="#CACACA" transform="translate(187,185)"/>
</svg>
